<svg xmlns="http://www.w3.org/2000/svg" viewBox="0 0 800 400" preserveAspectRatio="xMidYMid slice">
  <g opacity="0.45">
    <!-- Arboles izquierda -->
    <polygon points="80,220 110,160 140,220" fill="#5BA86E"/>
    <polygon points="80,260 110,200 140,260" fill="#4A8E5C"/>
    <rect x="105" y="260" width="10" height="30" fill="#7A5C3D"/>
    <polygon points="160,240 200,170 240,240" fill="#5BA86E"/>
    <polygon points="160,290 200,220 240,290" fill="#4A8E5C"/>
    <rect x="195" y="290" width="10" height="35" fill="#7A5C3D"/>
    <polygon points="260,230 290,180 320,230" fill="#5BA86E"/>
    <polygon points="260,270 290,220 320,270" fill="#4A8E5C"/>
    <rect x="285" y="270" width="10" height="30" fill="#7A5C3D"/>
    <!-- Arboles derecha -->
    <polygon points="500,230 530,180 560,230" fill="#5BA86E"/>
    <polygon points="500,270 530,220 560,270" fill="#4A8E5C"/>
    <rect x="525" y="270" width="10" height="30" fill="#7A5C3D"/>
    <polygon points="580,220 620,150 660,220" fill="#5BA86E"/>
    <polygon points="580,275 620,205 660,275" fill="#4A8E5C"/>
    <rect x="615" y="275" width="10" height="35" fill="#7A5C3D"/>
    <polygon points="680,235 710,185 740,235" fill="#5BA86E"/>
    <polygon points="680,275 710,225 740,275" fill="#4A8E5C"/>
    <rect x="705" y="275" width="10" height="30" fill="#7A5C3D"/>
  </g>
</svg>
